#define grid_width 12
#define grid_height 12
static unsigned char tiledM_bits[] = {
   0x00, 0x00, 
   0x00, 0x00, 
   0x80, 0x03, 
   0x80, 0x03, 
   0xbe, 0x03, 
   0x06, 0x02, 
   0xf6, 0x02, 
   0xf6, 0x00, 
   0xf0, 0x00, 
   0xf0, 0x00, 
   0xf0, 0x00, 
   0x00, 0x00};
