#define grid_width 12
#define grid_height 12
static unsigned char tiledM_bits[] = {
   0x00, 0x00, 
   0x00, 0x00, 
   0xde, 0x03, 
   0xde, 0x03, 
   0xde, 0x03, 
   0xde, 0x03, 
   0x1e, 0x00, 
   0xde, 0x03, 
   0xde, 0x03, 
   0xde, 0x03, 
   0xde, 0x03, 
   0x00, 0x00};
